<?xml version="1.0" standalone="no"?>
<!DOCTYPE svg PUBLIC "-//W3C//DTD SVG 20010904//EN"
 "http://www.w3.org/TR/2001/REC-SVG-20010904/DTD/svg10.dtd">
<svg version="1.0" xmlns="http://www.w3.org/2000/svg"
 width="878.000000pt" height="878.000000pt" viewBox="0 0 878.000000 878.000000"
 preserveAspectRatio="xMidYMid meet">
<metadata>
Created by potrace 1.11, written by Peter Selinger 2001-2013
</metadata>
<g transform="translate(0.000000,878.000000) scale(0.100000,-0.100000)"
fill="#000000" stroke="none">
<path d="M3466 7963 c-6 -14 -5 -15 5 -6 7 7 10 15 7 18 -3 3 -9 -2 -12 -12z"/>
<path d="M3435 7942 c-2 -2 -270 -4 -596 -4 l-593 0 -44 -46 c-24 -26 -70 -76
-102 -112 -32 -36 -78 -86 -102 -111 -23 -26 -79 -86 -123 -134 -44 -49 -91
-100 -105 -115 -14 -15 -47 -51 -74 -81 -27 -30 -90 -99 -140 -153 -50 -55
-118 -129 -151 -165 -85 -93 -146 -159 -175 -190 -21 -23 -117 -128 -230 -251
-14 -15 -43 -48 -65 -72 -78 -85 -221 -241 -260 -283 -22 -24 -68 -74 -102
-113 -34 -38 -79 -87 -100 -109 -21 -21 -76 -81 -123 -133 -47 -51 -96 -105
-110 -120 -14 -15 -57 -62 -97 -106 -40 -43 -88 -97 -108 -118 l-36 -39 49
-51 c105 -108 142 -150 142 -159 0 -6 3 -7 7 -4 7 8 39 -34 35 -46 -1 -5 1 -6
6 -3 12 7 114 -102 107 -115 -4 -5 -3 -9 2 -8 23 4 35 -2 29 -17 -3 -8 -2 -13
3 -10 4 3 62 -51 127 -119 65 -69 154 -161 197 -205 43 -46 74 -86 71 -92 -4
-6 -3 -8 3 -5 13 8 46 -27 36 -38 -5 -4 -3 -5 3 -2 16 9 98 -78 89 -94 -5 -8
-4 -10 4 -5 7 5 46 -28 104 -89 51 -54 113 -119 138 -145 25 -25 43 -53 41
-60 -3 -7 0 -10 6 -6 5 3 41 -26 79 -66 37 -39 83 -86 100 -104 18 -18 33 -38
33 -45 0 -7 3 -10 6 -7 3 3 25 -16 50 -42 25 -26 72 -76 105 -110 32 -34 56
-66 53 -72 -4 -6 -3 -8 3 -5 10 6 16 1 163 -152 76 -80 88 -96 78 -110 -10
-13 -10 -14 2 -4 11 10 22 3 61 -34 26 -26 46 -50 43 -55 -3 -4 -1 -8 4 -8 10
0 52 -34 52 -43 0 -3 29 -34 65 -68 36 -35 63 -70 60 -77 -3 -8 0 -10 6 -6 15
9 82 -64 73 -78 -4 -7 -2 -8 5 -4 15 9 44 -20 35 -35 -4 -7 -3 -9 3 -6 13 8
184 -173 176 -186 -3 -6 -1 -7 5 -3 6 3 16 0 24 -8 7 -8 39 -42 72 -75 53 -54
57 -63 45 -78 -13 -16 -12 -17 3 -5 15 12 22 8 60 -32 24 -25 82 -87 131 -137
48 -49 85 -95 81 -100 -3 -5 -2 -8 3 -7 4 2 19 -5 33 -15 13 -9 22 -17 19 -17
-5 0 78 -88 266 -281 46 -48 81 -89 78 -93 -4 -3 -1 -6 5 -6 15 0 78 -70 74
-82 -1 -5 2 -7 7 -4 13 8 34 -21 25 -35 -5 -8 -3 -9 5 -5 15 10 153 -132 144
-147 -3 -6 -1 -7 4 -4 6 4 53 -38 104 -93 52 -55 142 -150 201 -211 60 -61
105 -115 102 -120 -3 -5 -1 -8 5 -7 15 4 201 -193 194 -205 -3 -6 -2 -7 4 -4
14 9 116 -100 107 -114 -4 -8 -3 -9 4 -5 7 4 18 4 25 -1 6 -4 56 -9 111 -9
l98 -2 72 75 c134 142 147 154 158 147 7 -4 8 -3 4 5 -5 7 14 33 48 68 31 31
56 61 56 66 0 5 7 7 14 4 10 -4 13 -1 9 9 -4 11 1 14 21 10 14 -2 28 -1 31 4
3 5 -4 7 -16 5 -21 -4 -21 -4 -4 15 10 11 22 17 28 13 6 -3 7 -1 3 5 -10 16
29 56 45 47 8 -5 10 -4 5 4 -10 15 13 43 27 34 5 -3 7 -2 4 4 -5 8 64 84 259
285 15 15 31 25 37 21 6 -3 7 -1 3 6 -4 6 8 27 31 50 21 21 92 95 158 165 69
72 126 124 133 121 7 -3 10 0 6 6 -8 14 56 80 69 72 6 -3 7 -1 3 5 -8 13 203
234 217 225 6 -3 7 -1 3 6 -4 7 22 41 66 85 40 41 121 125 180 188 59 62 148
156 198 208 51 52 135 141 188 197 52 56 99 100 104 97 5 -3 7 -1 6 4 -4 11
77 102 91 102 6 0 11 4 11 10 0 5 26 36 58 68 31 33 83 87 114 121 36 39 62
60 69 55 8 -4 9 -3 5 4 -4 7 22 42 63 84 38 40 100 105 136 143 37 39 71 69
76 68 5 -2 8 1 6 5 -3 12 110 132 117 125 3 -4 6 -1 6 7 0 7 32 46 72 86 40
41 75 79 79 86 4 6 12 7 19 3 9 -5 11 -4 6 3 -9 14 163 194 177 185 6 -3 7 -1
4 4 -4 6 34 53 83 104 50 52 90 97 90 101 0 4 9 10 21 13 11 4 18 9 16 12 -9
9 53 64 65 57 7 -4 8 -3 4 4 -7 11 15 35 229 258 50 51 100 105 112 119 13 15
28 23 34 19 8 -4 9 -3 5 4 -4 6 31 51 81 102 48 51 108 113 132 138 24 26 65
70 92 97 l49 51 -27 31 c-16 17 -67 73 -114 124 -48 52 -108 118 -135 148 -27
30 -60 66 -74 81 -14 15 -61 66 -105 115 -44 48 -93 102 -110 119 -16 18 -65
71 -107 117 -43 47 -90 99 -105 115 -15 17 -71 77 -123 134 -52 58 -120 132
-151 165 -51 55 -104 113 -175 191 -16 17 -65 71 -109 119 -44 48 -93 102
-110 119 -16 17 -68 74 -115 126 -47 52 -98 108 -115 125 -16 18 -66 72 -110
120 -44 49 -91 100 -105 115 -14 15 -47 52 -74 81 -98 108 -222 242 -252 274
l-32 33 -1508 1 c-830 1 -1526 2 -1547 4 -21 1 -40 1 -42 -1z"/>
<path d="M8580 5140 c-9 -6 -10 -10 -3 -10 6 0 15 5 18 10 8 12 4 12 -15 0z"/>
<path d="M8270 4921 c0 -6 4 -13 10 -16 6 -3 7 1 4 9 -7 18 -14 21 -14 7z"/>
<path d="M470 4859 c0 -5 5 -7 10 -4 6 3 10 8 10 11 0 2 -4 4 -10 4 -5 0 -10
-5 -10 -11z"/>
<path d="M7956 4587 c3 -10 9 -15 12 -12 3 3 0 11 -7 18 -10 9 -11 8 -5 -6z"/>
<path d="M7759 4318 c-5 -18 -6 -38 -1 -34 7 8 12 36 6 36 -2 0 -4 -1 -5 -2z"/>
<path d="M7676 4173 c-6 -14 -5 -15 5 -6 7 7 10 15 7 18 -3 3 -9 -2 -12 -12z"/>
<path d="M1115 4160 c3 -5 8 -10 11 -10 2 0 4 5 4 10 0 6 -5 10 -11 10 -5 0
-7 -4 -4 -10z"/>
<path d="M1315 3940 c3 -5 8 -10 11 -10 2 0 4 5 4 10 0 6 -5 10 -11 10 -5 0
-7 -4 -4 -10z"/>
<path d="M7275 3881 c-3 -5 -2 -12 3 -15 5 -3 9 1 9 9 0 17 -3 19 -12 6z"/>
<path d="M1395 3860 c-3 -5 -1 -10 4 -10 6 0 11 5 11 10 0 6 -2 10 -4 10 -3 0
-8 -4 -11 -10z"/>
<path d="M6870 3340 c0 -5 5 -10 11 -10 5 0 7 5 4 10 -3 6 -8 10 -11 10 -2 0
-4 -4 -4 -10z"/>
<path d="M6595 3069 c-4 -6 -5 -12 -2 -15 2 -3 7 2 10 11 7 17 1 20 -8 4z"/>
<path d="M2244 3022 c4 -3 14 -7 22 -8 9 -1 13 0 10 4 -4 3 -14 7 -22 8 -9 1
-13 0 -10 -4z"/>
<path d="M6310 2861 c0 -6 4 -13 10 -16 6 -3 7 1 4 9 -7 18 -14 21 -14 7z"/>
<path d="M2556 2618 c3 -5 10 -6 15 -3 13 9 11 12 -6 12 -8 0 -12 -4 -9 -9z"/>
<path d="M2675 2511 c-3 -5 -2 -12 3 -15 5 -3 9 1 9 9 0 17 -3 19 -12 6z"/>
<path d="M3514 1686 c1 -8 5 -18 8 -22 4 -3 5 1 4 10 -1 8 -5 18 -8 22 -4 3
-5 -1 -4 -10z"/>
<path d="M5236 1607 c3 -10 9 -15 12 -12 3 3 0 11 -7 18 -10 9 -11 8 -5 -6z"/>
<path d="M3646 1578 c3 -5 10 -6 15 -3 13 9 11 12 -6 12 -8 0 -12 -4 -9 -9z"/>
<path d="M5187 1579 c7 -7 15 -10 18 -7 3 3 -2 9 -12 12 -14 6 -15 5 -6 -5z"/>
<path d="M5029 1423 c-13 -16 -12 -17 4 -4 16 13 21 21 13 21 -2 0 -10 -8 -17
-17z"/>
<path d="M4835 1229 c-4 -6 -5 -12 -2 -15 2 -3 7 2 10 11 7 17 1 20 -8 4z"/>
</g>
</svg>
